<mxfile host="app.diagrams.net" modified="2023-05-03T09:16:13.514Z" agent="Mozilla/5.0 (Windows NT 10.0; Win64; x64) AppleWebKit/537.36 (KHTML, like Gecko) Chrome/112.0.0.0 Safari/537.36" etag="-etLdg9DdV3tZWxCqb9g" version="21.1.5" type="device">
  <diagram id="C5RBs43oDa-KdzZeNtuy" name="Page-1">
    <mxGraphModel dx="1035" dy="474" grid="1" gridSize="10" guides="1" tooltips="1" connect="1" arrows="1" fold="1" page="1" pageScale="1" pageWidth="827" pageHeight="1169" math="0" shadow="0">
      <root>
        <mxCell id="WIyWlLk6GJQsqaUBKTNV-0" />
        <mxCell id="WIyWlLk6GJQsqaUBKTNV-1" parent="WIyWlLk6GJQsqaUBKTNV-0" />
        <mxCell id="iKl5GgZeDcTs2LutQjbo-2" value="" style="edgeStyle=orthogonalEdgeStyle;rounded=0;orthogonalLoop=1;jettySize=auto;html=1;" parent="WIyWlLk6GJQsqaUBKTNV-1" source="iKl5GgZeDcTs2LutQjbo-0" target="iKl5GgZeDcTs2LutQjbo-1" edge="1">
          <mxGeometry relative="1" as="geometry" />
        </mxCell>
        <mxCell id="iKl5GgZeDcTs2LutQjbo-0" value="Start" style="ellipse;whiteSpace=wrap;html=1;" parent="WIyWlLk6GJQsqaUBKTNV-1" vertex="1">
          <mxGeometry x="390" y="30" width="120" height="40" as="geometry" />
        </mxCell>
        <mxCell id="iKl5GgZeDcTs2LutQjbo-4" value="" style="edgeStyle=orthogonalEdgeStyle;rounded=0;orthogonalLoop=1;jettySize=auto;html=1;" parent="WIyWlLk6GJQsqaUBKTNV-1" source="iKl5GgZeDcTs2LutQjbo-1" target="iKl5GgZeDcTs2LutQjbo-3" edge="1">
          <mxGeometry relative="1" as="geometry" />
        </mxCell>
        <mxCell id="iKl5GgZeDcTs2LutQjbo-1" value="Read A :=&amp;nbsp; [a&lt;sub&gt;ij&lt;/sub&gt;]&lt;sub&gt;m×n&lt;br&gt;&lt;/sub&gt;" style="shape=parallelogram;perimeter=parallelogramPerimeter;whiteSpace=wrap;html=1;fixedSize=1;size=20;" parent="WIyWlLk6GJQsqaUBKTNV-1" vertex="1">
          <mxGeometry x="380" y="100" width="140" height="40" as="geometry" />
        </mxCell>
        <mxCell id="EAecLx1pcMKVHyvuFX71-3" value="" style="edgeStyle=orthogonalEdgeStyle;rounded=0;orthogonalLoop=1;jettySize=auto;html=1;" edge="1" parent="WIyWlLk6GJQsqaUBKTNV-1" source="iKl5GgZeDcTs2LutQjbo-3" target="EAecLx1pcMKVHyvuFX71-2">
          <mxGeometry relative="1" as="geometry" />
        </mxCell>
        <mxCell id="iKl5GgZeDcTs2LutQjbo-3" value="Initialize t = 9" style="whiteSpace=wrap;html=1;" parent="WIyWlLk6GJQsqaUBKTNV-1" vertex="1">
          <mxGeometry x="365" y="170" width="170" height="40" as="geometry" />
        </mxCell>
        <mxCell id="iKl5GgZeDcTs2LutQjbo-15" value="" style="edgeStyle=orthogonalEdgeStyle;rounded=0;orthogonalLoop=1;jettySize=auto;html=1;" parent="WIyWlLk6GJQsqaUBKTNV-1" source="iKl5GgZeDcTs2LutQjbo-12" edge="1">
          <mxGeometry relative="1" as="geometry">
            <mxPoint x="450" y="380" as="targetPoint" />
          </mxGeometry>
        </mxCell>
        <mxCell id="EAecLx1pcMKVHyvuFX71-18" style="edgeStyle=orthogonalEdgeStyle;rounded=0;orthogonalLoop=1;jettySize=auto;html=1;entryX=0.5;entryY=0;entryDx=0;entryDy=0;" edge="1" parent="WIyWlLk6GJQsqaUBKTNV-1" source="iKl5GgZeDcTs2LutQjbo-12" target="iKl5GgZeDcTs2LutQjbo-49">
          <mxGeometry relative="1" as="geometry">
            <mxPoint x="720" y="800" as="targetPoint" />
            <Array as="points">
              <mxPoint x="710" y="330" />
              <mxPoint x="710" y="790" />
              <mxPoint x="440" y="790" />
            </Array>
          </mxGeometry>
        </mxCell>
        <mxCell id="EAecLx1pcMKVHyvuFX71-19" value="DONE" style="edgeLabel;html=1;align=center;verticalAlign=middle;resizable=0;points=[];" vertex="1" connectable="0" parent="EAecLx1pcMKVHyvuFX71-18">
          <mxGeometry x="-0.9359" y="3" relative="1" as="geometry">
            <mxPoint y="-7" as="offset" />
          </mxGeometry>
        </mxCell>
        <mxCell id="iKl5GgZeDcTs2LutQjbo-12" value="For all i and j" style="shape=hexagon;perimeter=hexagonPerimeter2;whiteSpace=wrap;html=1;fixedSize=1;" parent="WIyWlLk6GJQsqaUBKTNV-1" vertex="1">
          <mxGeometry x="350" y="310" width="200" height="40" as="geometry" />
        </mxCell>
        <mxCell id="iKl5GgZeDcTs2LutQjbo-20" value="" style="edgeStyle=orthogonalEdgeStyle;rounded=0;orthogonalLoop=1;jettySize=auto;html=1;" parent="WIyWlLk6GJQsqaUBKTNV-1" source="iKl5GgZeDcTs2LutQjbo-17" edge="1">
          <mxGeometry relative="1" as="geometry">
            <mxPoint x="450" y="450" as="targetPoint" />
          </mxGeometry>
        </mxCell>
        <mxCell id="EAecLx1pcMKVHyvuFX71-13" style="edgeStyle=orthogonalEdgeStyle;rounded=0;orthogonalLoop=1;jettySize=auto;html=1;entryX=0;entryY=0.5;entryDx=0;entryDy=0;" edge="1" parent="WIyWlLk6GJQsqaUBKTNV-1" source="iKl5GgZeDcTs2LutQjbo-17" target="iKl5GgZeDcTs2LutQjbo-12">
          <mxGeometry relative="1" as="geometry">
            <Array as="points">
              <mxPoint x="200" y="400" />
              <mxPoint x="200" y="330" />
            </Array>
          </mxGeometry>
        </mxCell>
        <mxCell id="EAecLx1pcMKVHyvuFX71-14" value="LOOP" style="edgeLabel;html=1;align=center;verticalAlign=middle;resizable=0;points=[];" vertex="1" connectable="0" parent="EAecLx1pcMKVHyvuFX71-13">
          <mxGeometry x="0.7951" y="-2" relative="1" as="geometry">
            <mxPoint x="12" y="-12" as="offset" />
          </mxGeometry>
        </mxCell>
        <mxCell id="EAecLx1pcMKVHyvuFX71-15" value="DONE" style="edgeLabel;html=1;align=center;verticalAlign=middle;resizable=0;points=[];" vertex="1" connectable="0" parent="EAecLx1pcMKVHyvuFX71-13">
          <mxGeometry x="-0.8927" y="1" relative="1" as="geometry">
            <mxPoint y="-11" as="offset" />
          </mxGeometry>
        </mxCell>
        <mxCell id="EAecLx1pcMKVHyvuFX71-21" style="edgeStyle=orthogonalEdgeStyle;rounded=0;orthogonalLoop=1;jettySize=auto;html=1;exitX=0;exitY=0.5;exitDx=0;exitDy=0;" edge="1" parent="WIyWlLk6GJQsqaUBKTNV-1" source="iKl5GgZeDcTs2LutQjbo-17">
          <mxGeometry relative="1" as="geometry">
            <mxPoint x="290" y="400" as="targetPoint" />
          </mxGeometry>
        </mxCell>
        <mxCell id="iKl5GgZeDcTs2LutQjbo-17" value="For k from 1 to t" style="shape=hexagon;perimeter=hexagonPerimeter2;whiteSpace=wrap;html=1;fixedSize=1;" parent="WIyWlLk6GJQsqaUBKTNV-1" vertex="1">
          <mxGeometry x="390" y="380" width="120" height="40" as="geometry" />
        </mxCell>
        <mxCell id="iKl5GgZeDcTs2LutQjbo-31" value="" style="endArrow=classic;html=1;rounded=0;entryX=1;entryY=0.5;entryDx=0;entryDy=0;exitX=1;exitY=0.5;exitDx=0;exitDy=0;" parent="WIyWlLk6GJQsqaUBKTNV-1" source="EAecLx1pcMKVHyvuFX71-6" target="iKl5GgZeDcTs2LutQjbo-17" edge="1">
          <mxGeometry relative="1" as="geometry">
            <mxPoint x="490" y="490" as="sourcePoint" />
            <mxPoint x="590" y="630" as="targetPoint" />
            <Array as="points">
              <mxPoint x="670" y="570" />
              <mxPoint x="670" y="400" />
            </Array>
          </mxGeometry>
        </mxCell>
        <mxCell id="iKl5GgZeDcTs2LutQjbo-32" value="LOOP" style="edgeLabel;resizable=0;html=1;align=center;verticalAlign=middle;" parent="iKl5GgZeDcTs2LutQjbo-31" connectable="0" vertex="1">
          <mxGeometry relative="1" as="geometry">
            <mxPoint x="-130" y="-42" as="offset" />
          </mxGeometry>
        </mxCell>
        <mxCell id="EAecLx1pcMKVHyvuFX71-8" value="NO" style="edgeLabel;html=1;align=center;verticalAlign=middle;resizable=0;points=[];" vertex="1" connectable="0" parent="iKl5GgZeDcTs2LutQjbo-31">
          <mxGeometry x="-0.8763" relative="1" as="geometry">
            <mxPoint x="-15" y="-10" as="offset" />
          </mxGeometry>
        </mxCell>
        <mxCell id="iKl5GgZeDcTs2LutQjbo-49" value="Stop" style="ellipse;whiteSpace=wrap;html=1;" parent="WIyWlLk6GJQsqaUBKTNV-1" vertex="1">
          <mxGeometry x="380" y="820" width="120" height="40" as="geometry" />
        </mxCell>
        <mxCell id="EAecLx1pcMKVHyvuFX71-5" style="edgeStyle=orthogonalEdgeStyle;rounded=0;orthogonalLoop=1;jettySize=auto;html=1;entryX=0.5;entryY=0;entryDx=0;entryDy=0;" edge="1" parent="WIyWlLk6GJQsqaUBKTNV-1" source="EAecLx1pcMKVHyvuFX71-2">
          <mxGeometry relative="1" as="geometry">
            <mxPoint x="450" y="310" as="targetPoint" />
          </mxGeometry>
        </mxCell>
        <mxCell id="EAecLx1pcMKVHyvuFX71-2" value="&lt;font style=&quot;font-size: 12px;&quot;&gt;Compute 𝐴̿t&lt;/font&gt;" style="whiteSpace=wrap;html=1;" vertex="1" parent="WIyWlLk6GJQsqaUBKTNV-1">
          <mxGeometry x="370" y="240" width="160" height="40" as="geometry" />
        </mxCell>
        <mxCell id="EAecLx1pcMKVHyvuFX71-11" value="YES" style="edgeStyle=orthogonalEdgeStyle;rounded=0;orthogonalLoop=1;jettySize=auto;html=1;" edge="1" parent="WIyWlLk6GJQsqaUBKTNV-1" source="EAecLx1pcMKVHyvuFX71-6" target="EAecLx1pcMKVHyvuFX71-10">
          <mxGeometry x="0.2" y="20" relative="1" as="geometry">
            <mxPoint as="offset" />
          </mxGeometry>
        </mxCell>
        <mxCell id="EAecLx1pcMKVHyvuFX71-6" value="&amp;nbsp;min(𝐴&lt;sup style=&quot;border-color: var(--border-color);&quot;&gt;k&lt;/sup&gt;&lt;sub style=&quot;border-color: var(--border-color);&quot;&gt;𝑖𝑗&lt;/sub&gt;) &amp;lt; median(𝐴&lt;sup style=&quot;border-color: var(--border-color);&quot;&gt;k&lt;/sup&gt;&lt;sub style=&quot;border-color: var(--border-color);&quot;&gt;𝑖𝑗&lt;/sub&gt;)&lt;br style=&quot;border-color: var(--border-color);&quot;&gt;&amp;amp;&lt;br style=&quot;border-color: var(--border-color);&quot;&gt;median(𝐴&lt;sup style=&quot;border-color: var(--border-color);&quot;&gt;k&lt;/sup&gt;&lt;sub style=&quot;border-color: var(--border-color);&quot;&gt;𝑖𝑗&lt;/sub&gt;) &amp;lt; max(𝐴&lt;sup style=&quot;border-color: var(--border-color);&quot;&gt;k&lt;/sup&gt;&lt;sub style=&quot;border-color: var(--border-color);&quot;&gt;𝑖𝑗&lt;/sub&gt;)&lt;br style=&quot;border-color: var(--border-color);&quot;&gt;&amp;amp;&lt;br style=&quot;border-color: var(--border-color);&quot;&gt;(a&lt;sub style=&quot;border-color: var(--border-color);&quot;&gt;ij&lt;/sub&gt;&amp;nbsp;= min(𝐴&lt;sup style=&quot;border-color: var(--border-color);&quot;&gt;k&lt;/sup&gt;&lt;sub style=&quot;border-color: var(--border-color);&quot;&gt;𝑖𝑗&lt;/sub&gt;)&amp;nbsp;OR a&lt;sub style=&quot;border-color: var(--border-color);&quot;&gt;ij&amp;nbsp;&lt;/sub&gt;&lt;span style=&quot;border-color: var(--border-color);&quot;&gt;=&amp;nbsp;&lt;/span&gt;&lt;span style=&quot;border-color: var(--border-color);&quot;&gt;&lt;/span&gt;max(𝐴&lt;sup style=&quot;border-color: var(--border-color);&quot;&gt;k&lt;/sup&gt;&lt;sub style=&quot;border-color: var(--border-color);&quot;&gt;𝑖𝑗&lt;/sub&gt;) )" style="rhombus;whiteSpace=wrap;html=1;" vertex="1" parent="WIyWlLk6GJQsqaUBKTNV-1">
          <mxGeometry x="285" y="450" width="330" height="240" as="geometry" />
        </mxCell>
        <mxCell id="EAecLx1pcMKVHyvuFX71-16" style="edgeStyle=orthogonalEdgeStyle;rounded=0;orthogonalLoop=1;jettySize=auto;html=1;" edge="1" parent="WIyWlLk6GJQsqaUBKTNV-1" source="EAecLx1pcMKVHyvuFX71-10">
          <mxGeometry relative="1" as="geometry">
            <mxPoint x="200" y="360" as="targetPoint" />
          </mxGeometry>
        </mxCell>
        <mxCell id="EAecLx1pcMKVHyvuFX71-20" style="edgeStyle=orthogonalEdgeStyle;rounded=0;orthogonalLoop=1;jettySize=auto;html=1;" edge="1" parent="WIyWlLk6GJQsqaUBKTNV-1" source="EAecLx1pcMKVHyvuFX71-10">
          <mxGeometry relative="1" as="geometry">
            <mxPoint x="200.0000000000001" y="560.0000000000001" as="targetPoint" />
          </mxGeometry>
        </mxCell>
        <mxCell id="EAecLx1pcMKVHyvuFX71-10" value="a&lt;sub style=&quot;border-color: var(--border-color);&quot;&gt;ij &lt;/sub&gt;&lt;span style=&quot;border-color: var(--border-color);&quot;&gt;=&amp;nbsp;&lt;/span&gt;median(𝐴&lt;sup style=&quot;border-color: var(--border-color);&quot;&gt;k&lt;/sup&gt;&lt;sub style=&quot;border-color: var(--border-color);&quot;&gt;𝑖𝑗&lt;/sub&gt;)" style="whiteSpace=wrap;html=1;" vertex="1" parent="WIyWlLk6GJQsqaUBKTNV-1">
          <mxGeometry x="390" y="720" width="120" height="40" as="geometry" />
        </mxCell>
      </root>
    </mxGraphModel>
  </diagram>
</mxfile>
